<svg xmlns="http://www.w3.org/2000/svg" width="520" height="520" viewBox="0 0 520 520"><defs><style>.cls-1{fill:#231f20;}.cls-2{opacity:0.6;}</style></defs><title>103 Coding</title><g id="n.103_Coding" data-name="n.103 Coding"><path class="cls-1" d="M272.36,287.21a10.65,10.65,0,0,1-.26-1.86,4.31,4.31,0,0,1-.1-.61,10.82,10.82,0,0,1,.28-2.17,3.88,3.88,0,0,0,0-.9c0-.38-.15-.79.17-1.16.1-.12.68,0,1.26.12s1.18.33,1.21.5a3.43,3.43,0,0,1,0,1.88c-.15.41.07.77.14,1.15s.14.82.24,1.22a3.76,3.76,0,0,0,.25.69,1.77,1.77,0,0,0,.59.83.61.61,0,0,0,.38,0c.13,0,.28-.12.36-.1l.13,0c.14,0,.13.3.08,1.16l0,.58a1.56,1.56,0,0,1-.61,1.37,2.59,2.59,0,0,1-3.1-.78,5.19,5.19,0,0,1-.67-.91,6.43,6.43,0,0,1-.4-1Z"/><path class="cls-1" d="M225.4,151.85c-.28,1.9-.46,3.85-.59,5.8,0,.72,0,1.43,0,2.15-.12,2.52-.27,5.07-.27,7.62a27.15,27.15,0,0,0,.23,3.38,14.64,14.64,0,0,1,.24,4.33c-.17.92-3.59,0-3.74-1.65a42.73,42.73,0,0,1,.07-9c.21-1.8,0-3.67.07-5.52.06-2,.23-4.06.43-6.09.14-1.25.29-2.5.49-3.75.27-1.89.71-3.76,1.09-5.61.31-1.45.47-2.91.82-4.36.08-.31.12-.64.22-1,.39-1.15.76-1.43,1.7-1.3.22,0,.44,0,.65.09a1.41,1.41,0,0,1,.95,1.69c-.32,2.5-.93,4.92-1.4,7.44-.34,1.87-.69,3.76-.87,5.7Z"/><path class="cls-1" d="M271.52,142.15c-5.26-5.92-13.88-8.67-21.64-8.55-2.41,0-2.42,3.79,0,3.75,6.83-.11,14.35,2.23,19,7.45,1.61,1.81,4.25-.85,2.65-2.65Z"/><path class="cls-1" d="M404.45,204.31c-.68-11.09-4.44-17.44-12.5-24.85-6.2-5.72-13.26-12-14.12-20.83-.83-8.62,2-17.61,2.49-26.15,3.4-62.69-50.49-59.75-64.39-48.38-21.05-34.52-73.26-22.71-91.33-13.29-11.38,5.94-22.52,17.56-28.24,29.49a71.64,71.64,0,0,0-6.83,35.59c.58,11.2,3.95,22.14,3.47,33.37-.5,11.64-7.47,18.47-14.36,26.87-17.23,21,11.3,70.8,77.61,53.87,0,0,5.75,13.78,15.32,14.85,5.59.62,11.61-8.56,13.42-17.06,12.31,0,30.36,17.74,30.36,17.74a86.28,86.28,0,0,0,58.16-10.06C391.75,245.21,405.77,225.9,404.45,204.31ZM323.72,180.1c-2.91-.55-15.3,43.72-41.11,50-13,3.15-26.87.81-36.85-8.19-10.21-9.22-17-22.06-20.14-35.41-1.06-4.55-3-15.45-3-15.46-18.51-2.11-26.73-31.09-8.68-38.05,6-1.59,8.91,3.5,13.89,4.84.89.24,1.76.51,2.63.74,37.58,10,65.21-11.81,72.88-14.46,10.11-2,16.8,33.67,18.38,30.57,4.78-9.41,13.95-13.69,21.06-9.36C360.46,156.1,341.62,183.47,323.72,180.1Z"/><path class="cls-1" d="M176.15,227.75a38.27,38.27,0,0,1-4.44-14.46,26.42,26.42,0,0,1,3-15,24.64,24.64,0,0,1,2.19-3.28c.77-1,1.54-1.87,2.32-2.78,1.54-1.83,3.07-3.64,4.49-5.48a34.05,34.05,0,0,0,6.4-11.86,28,28,0,0,0,.91-6.62,59.77,59.77,0,0,0-.24-6.94c-.41-4.66-1.21-9.34-1.93-14.1a101.39,101.39,0,0,1-1.32-14.53A76.43,76.43,0,0,1,188.75,118a71.5,71.5,0,0,1,6.88-20.28,69.79,69.79,0,0,1,12.85-17.11,65.27,65.27,0,0,1,15.17-11.27,85.87,85.87,0,0,1,17.66-6.45,111.62,111.62,0,0,1,18.43-3.14c3.11-.28,6.24-.36,9.37-.35a86.6,86.6,0,0,1,9.37.66,64.83,64.83,0,0,1,9.24,1.84,55.59,55.59,0,0,1,8.89,3.23,51.7,51.7,0,0,1,8.19,4.79l1.87,1.47.93.74.87.81,1.74,1.62,1.61,1.75.81.88.73.93L314.83,80c.44.61,1,1.47,1.06,1.59l.28.42c.05,0,.08.19.15.16l.2-.14.4-.29.78-.47c.69-.44,1.43-.75,2.15-1.12a36.09,36.09,0,0,1,4.47-1.71,49.34,49.34,0,0,1,18.74-1.85,43.67,43.67,0,0,1,16.11,4.65,35.88,35.88,0,0,1,10.07,7.64l1.43,1.56L372,92.13a45.08,45.08,0,0,1,7.28,15.05,70.8,70.8,0,0,1,2.42,16.37c.07,1.76.15,3.53.06,5.29s0,3.51-.19,5.3c-.3,3.55-.89,7-1.41,10.45a71.2,71.2,0,0,0-1,10.2,26.71,26.71,0,0,0,.32,4.94,19.32,19.32,0,0,0,1.46,4.61,31.68,31.68,0,0,0,5.81,8.07c2.34,2.49,4.92,4.75,7.48,7.2A42.64,42.64,0,0,1,401,187.9,29.85,29.85,0,0,1,404.89,198a24.26,24.26,0,0,1,.47,4.83c0,1-.15,1.47-.33,1.42-.39-.1-.85-2.24-1.95-5.71a36.33,36.33,0,0,0-2.5-5.9,33,33,0,0,0-4.79-6.59c-1-1.1-2.13-2.22-3.37-3.32s-2.53-2.23-3.92-3.45a55,55,0,0,1-8.24-8.62,29.61,29.61,0,0,1-2.95-5,21.89,21.89,0,0,1-1.7-5.71,32,32,0,0,1-.29-5.73c.05-1.87.2-3.72.42-5.54.44-3.62,1.09-7.14,1.59-10.58.25-1.73.45-3.44.57-5.13s.11-3.45.17-5.18-.07-3.46-.1-5.19c0-.86-.09-1.72-.17-2.58l-.24-2.57c-.19-1.71-.52-3.39-.77-5.08l-.59-2.49a23,23,0,0,0-.66-2.47l-.77-2.43c-.25-.81-.62-1.57-.93-2.36a45.2,45.2,0,0,0-2.18-4.55,39.16,39.16,0,0,0-6.07-7.93,36.32,36.32,0,0,0-17.54-9.28,45.79,45.79,0,0,0-20.24.14c-.81.23-1.64.42-2.45.67s-1.61.49-2.38.83a24.56,24.56,0,0,0-2.28,1c-.37.19-.75.35-1.09.57l-.52.31-.33.19a6.57,6.57,0,0,0-.55.36l-2,1.43-.5.35-.25.18c-.05.06-.08,0-.1,0l-.09-.13-.68-1-2.2-3.34c-.49-.69-1-1.35-1.55-2-.27-.34-.52-.69-.8-1l-.86-.94a44.16,44.16,0,0,0-3.63-3.61,47.21,47.21,0,0,0-4.08-3.11,45.66,45.66,0,0,0-9.13-4.8,67,67,0,0,0-24.76-4.22A103.81,103.81,0,0,0,242,66.13a92.4,92.4,0,0,0-12.3,4.1,51.85,51.85,0,0,0-11.15,6.28A70.2,70.2,0,0,0,201,95.2a61.67,61.67,0,0,0-6.13,12.66,67.38,67.38,0,0,0-3.32,13.71,76.74,76.74,0,0,0-.57,14.14,135.81,135.81,0,0,0,1.7,14.19,126.21,126.21,0,0,1,1.68,14.52,47.82,47.82,0,0,1-.22,7.45,28.6,28.6,0,0,1-2,7.32c-1.93,4.69-5,8.69-8.07,12.42-1.54,1.87-3.13,3.69-4.61,5.53a21.7,21.7,0,0,0-3.27,5.9,24,24,0,0,0-1.23,8.3,31.81,31.81,0,0,0,.38,4.23,35.47,35.47,0,0,0,1,4.15,38.87,38.87,0,0,0,1.5,4,41.84,41.84,0,0,0,2,3.8,41.35,41.35,0,0,0,5.13,6.94A50.71,50.71,0,0,0,198.82,245a62.17,62.17,0,0,0,16.4,5.78,79.79,79.79,0,0,0,20.47,1.34l2.57-.15c.86-.07,1.71-.19,2.56-.28,1.71-.2,3.42-.36,5.11-.69s3.39-.53,5.06-.93l2.52-.57,1.55-.35c.61-.13,1.24-.3,1.83-.4l.62,1.4.32.68.28.56c.31.6.63,1.19,1,1.77a36,36,0,0,0,2.21,3.36,22.48,22.48,0,0,0,5.62,5.48c.53.36,1.12.61,1.67.93s1.18.47,1.79.6l.91.19c.15,0,.31.07.45.08h.41a2.81,2.81,0,0,0,.41,0l.42-.08.41-.08.41-.16a9.18,9.18,0,0,0,3.06-2.06,19.14,19.14,0,0,0,2.5-3,30.08,30.08,0,0,0,3.56-7.1c.24-.63.42-1.27.61-1.9.13-.45.25-.94.37-1.4l.18-.71.1-.35c0-.1,0-.29.18-.23l1.45.06,1.4.15.34,0,.26.05.54.11c.35.06.7.15,1.05.24a35,35,0,0,1,7.81,3.2,69,69,0,0,1,7.05,4.42c2.11,1.5,4.16,3.08,6.13,4.71,1,.81,2,1.64,2.91,2.48l1.42,1.27,1.14,1.07,1.75.29c.68.13,1.37.2,2.06.29,1.37.21,2.76.31,4.14.44,2.76.18,5.53.28,8.29.19a85.14,85.14,0,0,0,32-7.16,81.17,81.17,0,0,0,14.33-8,62.51,62.51,0,0,0,12.73-12.07,59.32,59.32,0,0,0,7.35-11.69,57.68,57.68,0,0,0,3.24-8.82c.34-1.22.67-2.31.84-3.32s.43-1.9.61-2.72c.24-1.64.59-3,.81-4.16s.38-2.54.58-3.19.34-.4.52.42c.08.41.17,1,.26,1.72a17.36,17.36,0,0,1,.16,2.68,45.21,45.21,0,0,1-4.09,18.75,61,61,0,0,1-6.29,10.75,66.85,66.85,0,0,1-18.46,17,91.65,91.65,0,0,1-11.24,5.88,97.15,97.15,0,0,1-12,4.26,92.61,92.61,0,0,1-12.62,2.48,84.49,84.49,0,0,1-12.93.64c-2.16-.06-4.33-.2-6.49-.42-1.09-.09-2.17-.27-3.25-.4-.54-.07-1.08-.18-1.61-.26l-2.28-.4-1.09-1-.59-.55L311.37,265c-.8-.71-1.61-1.42-2.44-2.11q-2.48-2.09-5.07-4A61.49,61.49,0,0,0,293,252.28a24.58,24.58,0,0,0-5.74-1.89c-.65-.12-.37-.06-.44-.07h0s0,0,0,0l-.13.43c-.17.57-.34,1.15-.55,1.7a35,35,0,0,1-3,6.48,23.55,23.55,0,0,1-4.71,5.75,11.81,11.81,0,0,1-3.79,2.2,8.48,8.48,0,0,1-1.18.29c-.21,0-.41.08-.62.1h-.64a9.36,9.36,0,0,1-2.26-.28,16.63,16.63,0,0,1-7.14-3.76,29.74,29.74,0,0,1-5-5.71c-.71-1-1.35-2.08-2-3.15-.28-.53-.62-1.14-.85-1.6h0l-.1,0-.68.15-2.73.62c-1.82.4-3.67.66-5.5,1a101.66,101.66,0,0,1-11.16,1.14,79.39,79.39,0,0,1-22.45-2,61.49,61.49,0,0,1-20.78-9.07,49.14,49.14,0,0,1-15.43-16.8Z"/><path class="cls-1" d="M258.19,142.88a41.51,41.51,0,0,1-4.17.28c-1.4,0-2.79.16-4.18.11l-4.18-.18c-.7-.05-1.4,0-2.09-.12l-2.07-.27-4.15-.55c-1.37-.24-2.72-.59-4.08-.88s-2.74-.58-4-1l-2-.57c-.39-.12-.78-.24-1.16-.38s-.73-.3-1.08-.47c-2.77-1.38-4.81-3.21-6.87-3.92a6,6,0,0,0-3.06-.28c-.25.05-.6.11-.65.13l-.79.34a13.39,13.39,0,0,0-1.59.84,12.83,12.83,0,0,0-4.79,5.12,15.82,15.82,0,0,0-1.63,7,22.56,22.56,0,0,0,10,18.54c.5.29,1,.59,1.5.85s1,.52,1.57.7a13.53,13.53,0,0,0,1.63.54l.83.22a1.92,1.92,0,0,0,.3.06l.37.06.73.12.83.37.21.09.1,0,0,0h0c.05,0-.4.44-.2.25l.25.3a3.13,3.13,0,0,1,.74,1.65l.46,2.53.84,4.67c.59,3.12,1.13,6.21,1.92,9.2a72.85,72.85,0,0,0,6.92,17.23c6.08,10.68,15.08,20.59,27.25,23.36a42,42,0,0,0,17.92.44,35.74,35.74,0,0,0,4.34-1.08,28.11,28.11,0,0,0,4.09-1.72,35.6,35.6,0,0,0,7.3-5.1c5.74-5.12,10.22-11.61,14.14-18.35,2-3.38,3.77-6.85,5.53-10.37s3.39-7.07,5.31-10.62a8.48,8.48,0,0,1,1.74-2.37,2,2,0,0,1,1-.48c.42,0,.59.13.51.19s-.36.15-.5.36a2.42,2.42,0,0,0-.35.72c-.19.57-.4,1.37-.69,2.38a91.39,91.39,0,0,1-7.82,19.57c-4,7.15-8.55,14.13-14.61,20a41.3,41.3,0,0,1-10.36,7.48,31,31,0,0,1-6.13,2.24,49.69,49.69,0,0,1-6.26,1.09A42.86,42.86,0,0,1,252.33,229a38.33,38.33,0,0,1-5.4-3.47c-.86-.62-1.64-1.37-2.46-2.05s-1.52-1.45-2.25-2.2a65,65,0,0,1-7.81-9.79,76.69,76.69,0,0,1-9.08-19.72,101,101,0,0,1-2.48-10.64l-1-5.32-.5-2.65-.09-.52c0-.2-.19-.16-.32-.19l-.24,0c-.08,0-.14,0-.36-.08l-1.1-.29a22.59,22.59,0,0,1-2.15-.72,21.77,21.77,0,0,1-4-2.16,23.66,23.66,0,0,1-6.23-6.31,26.24,26.24,0,0,1-3.66-7.86,23.86,23.86,0,0,1-.83-8.67,18.06,18.06,0,0,1,2.89-8.37,16.46,16.46,0,0,1,6.8-5.72l1-.44.31-.14a3.28,3.28,0,0,1,.37-.09l.59-.12a9.58,9.58,0,0,1,2.4-.13,10.93,10.93,0,0,1,4.45,1.4c2.58,1.44,4.6,3.18,6.88,3.8,2.61.82,5.24,1.32,7.86,1.92.66.14,1.31.33,2,.41l2,.26,4,.52a79.86,79.86,0,0,0,19.77-.9A87.87,87.87,0,0,0,282.74,133a147.92,147.92,0,0,0,13.63-6.67c1.14-.59,2.23-1.21,3.4-1.8.6-.28,1.13-.6,1.77-.86l.94-.39.54-.23.67-.09a6.18,6.18,0,0,1,4.27,1.43,14.23,14.23,0,0,1,2.8,3,39.78,39.78,0,0,1,3.79,6.86c1.05,2.36,2,4.76,2.84,7.16s1.67,4.83,2.48,7.22l.61,1.78.37,1a7.85,7.85,0,0,0,.43,1,2.1,2.1,0,0,0,.15.22c.06.07.16.14.23.06s.18-.31.27-.47.25-.47.38-.68l.44-.68c0-.07.24-.32.38-.5l.45-.58a11.25,11.25,0,0,1,.95-1.14c.34-.36.66-.75,1-1.08a18.67,18.67,0,0,1,4.87-3.51,14.73,14.73,0,0,1,5.88-1.57,12.49,12.49,0,0,1,6,1.25,18.86,18.86,0,0,1,2.61,1.58,16.73,16.73,0,0,1,2.27,2,14.37,14.37,0,0,1,3.2,5.25,17.74,17.74,0,0,1-.54,12,24.8,24.8,0,0,1-2.4,4.84,26.49,26.49,0,0,1-3.29,4.28c-4.67,4.92-9.12,6.66-12.16,7.35a10.81,10.81,0,0,1-6.38-.24,8.58,8.58,0,0,1-1.74-.84c-.27-.22-.14-.37.33-.47s1.26-.1,2.35-.24a22.32,22.32,0,0,0,9.32-3.12,26.43,26.43,0,0,0,9.74-10.48,19.58,19.58,0,0,0,2-6.77,12.3,12.3,0,0,0-1.13-6.57,12.92,12.92,0,0,0-4.63-4.87l-.36-.24-.37-.18-.72-.38-.76-.27-.38-.14-.39-.08a9.09,9.09,0,0,0-3.21-.2,12.61,12.61,0,0,0-6.2,2.66,11.34,11.34,0,0,0-1.36,1.15,15.51,15.51,0,0,0-1.26,1.3,17.12,17.12,0,0,0-1.16,1.45l-.15.18-.07.1-.14.23-.53.89-1.08,1.79c-.28.55-.49.5-.72.67l-.69.4-.7.4a2,2,0,0,1-.82,0,2.68,2.68,0,0,1-1.4-.87,7.35,7.35,0,0,1-1.21-2.12c-.35-.84-.67-1.75-1-2.64l-.47-1.37-.92-2.71c-1.22-3.61-2.47-7.18-3.94-10.61a42.69,42.69,0,0,0-3.57-6.86,13.1,13.1,0,0,0-2.22-2.63,3.11,3.11,0,0,0-2.08-.94s-.21,0-.14,0,0,0,0,0l-.13,0-.81.34c-.52.21-1.15.57-1.72.85-1.17.59-2.38,1.27-3.58,1.9-2.42,1.3-4.87,2.61-7.38,3.82a107.92,107.92,0,0,1-15.58,6.23c-1.32.46-2.7.74-4.06,1.12l-2,.54-2.07.42c-1.39.25-2.76.56-4.15.78l-4.2.5Z"/><path class="cls-1" d="M141.34,385.63a301.15,301.15,0,0,1,21.93-39c3-4.53,5.95-9.09,9.11-13.5a547.15,547.15,0,0,1,35.81-44.77c5.63-6.31,11.33-12.71,17.32-18.61,3.8-3.83,7.62-7.69,11.73-11.28a73.24,73.24,0,0,1,6.41-5.11,50.81,50.81,0,0,1,7-4.28c3.11-1.46,2.89-.77.74,1.17s-5.88,5.52-10.45,9.54c-4.11,3.52-8,7.33-11.88,11.21l-5.79,5.84c-1.89,1.95-3.75,4-5.61,6-7.41,8.1-14.59,16.45-21.71,24.92-8.48,10.16-16.64,21.29-24.27,32.46a340.94,340.94,0,0,0-23,38.19A189,189,0,0,0,138,403.56,118,118,0,0,0,133,423.62l-.37,2.56a8.73,8.73,0,0,0-.1,1.23,8.15,8.15,0,0,0,0,1.21,12.46,12.46,0,0,0,1,4.63,12.33,12.33,0,0,0,2.84,3.78,15.41,15.41,0,0,0,4.09,2.56,21.12,21.12,0,0,0,7.41,1.6,25.75,25.75,0,0,0,3.82-.11c1.29-.14,2.58-.28,3.85-.52a46.88,46.88,0,0,0,7.51-1.88,48.13,48.13,0,0,0,7.11-3c1-.49,2-1.1,3-1.64s1.93-1.17,2.87-1.83c3.53-2.37,5.69-4.17,7.32-5.31a12.08,12.08,0,0,1,3.67-2,8.12,8.12,0,0,1,1.35-.38c.57,0,.31.68-.65,2a32.38,32.38,0,0,1-5.2,5.31A58,58,0,0,1,170,439.89a56.06,56.06,0,0,1-7.13,2.72,53.39,53.39,0,0,1-7.52,1.67c-1.28.23-2.56.3-3.85.45l-2,.09c-.67,0-1.35,0-2-.05a25.39,25.39,0,0,1-8.06-1.78,18.1,18.1,0,0,1-7-5,15.93,15.93,0,0,1-3.45-9.85l.08-1.61c.09-1,.26-1.93.39-2.9l.41-2.84c.13-1,.37-1.88.55-2.82.72-3.76,1.71-7.45,2.78-11.1a167.1,167.1,0,0,1,8.1-21.26Z"/><path class="cls-1" d="M401.86,393.56c-3.23-6.7-6.77-13.31-10.16-20.06s-7-13.17-10.82-19.57c-2.81-4.66-5.82-9.22-8.77-13.8q-3.92-6.08-7.95-12.06c-2.7-4-5.37-8-8.15-11.92q-8.33-11.77-17.64-22.82c-2.75-3.26-5.58-6.48-8.47-9.62s-5.8-6.27-8.85-9.16c-3.94-3.72-8.1-7.27-12.15-11-2.07-1.89-3.9-3.94-5.77-5.89a35.09,35.09,0,0,0-6-5.3c-1.41-.85-2.06-1.15-2-1.3a4.66,4.66,0,0,1,2.34.48,27.82,27.82,0,0,1,5.47,2.88,35.77,35.77,0,0,1,3.24,2.52l1.67,1.44,1.66,1.56c4,3.67,8.42,7.2,12.5,11.06,2.06,1.92,4.11,3.94,6,6s3.83,4.09,5.72,6.17a320.27,320.27,0,0,1,21.3,26.2c4,5.46,7.92,11.13,11.85,16.8s7.88,11.4,11.61,17.21c4.09,6.39,8,12.91,11.68,19.57,1.84,3.32,3.59,6.72,5.3,10.09l5.18,10.08a209,209,0,0,1,11.59,25.58c.63,1.67,1.14,3.38,1.68,5.08s1,3.43,1.36,5.19a69.87,69.87,0,0,1,1.74,10.61,27.3,27.3,0,0,1-1,10.89,15.25,15.25,0,0,1-7,8.6,20.46,20.46,0,0,1-8.22,2.36,39.26,39.26,0,0,1-8.33-.15,35.67,35.67,0,0,1-15.61-5.81,43.73,43.73,0,0,1-5.78-4.56,29.74,29.74,0,0,1-6-7.61,9.38,9.38,0,0,1-1.37-4.17,8.91,8.91,0,0,1,0-1.42c.12-.54.76-.09,1.78,1.12s2.57,3.14,4.67,5.44a43.15,43.15,0,0,0,10.6,8.85A37.87,37.87,0,0,0,387,446a34.17,34.17,0,0,0,6.72,1.48,36.65,36.65,0,0,0,7,.13,16.88,16.88,0,0,0,6.29-1.7,10.06,10.06,0,0,0,2.5-1.78,11.53,11.53,0,0,0,1.94-2.4,14.89,14.89,0,0,0,1.91-6.18A39.35,39.35,0,0,0,412.8,425a88.63,88.63,0,0,0-2.55-10.71,142.12,142.12,0,0,0-8.46-20.66Z"/><path class="cls-1" d="M244.12,291.73a11.59,11.59,0,0,1-3.56,1,8.9,8.9,0,0,1-3.95-.42,6.93,6.93,0,0,1-3.35-2.57,8.43,8.43,0,0,1-1.33-3.63,16.62,16.62,0,0,1,0-5,50.85,50.85,0,0,1,5.7-15.22c1.16-2.07,2.34-4.14,3.63-6.12A40.34,40.34,0,0,1,244,256.1a13,13,0,0,1,3.57-3.12c1-.48,1,.19.76,1.1a10.89,10.89,0,0,1-1.74,3.51,55,55,0,0,0-4.67,7.36c-1.39,2.59-2.8,5.2-4.09,7.89a29.21,29.21,0,0,0-2.65,10.3,12.13,12.13,0,0,0,.11,2.71,5.46,5.46,0,0,0,.89,2.17,4.45,4.45,0,0,0,4.27,1.31,14.94,14.94,0,0,0,6.15-3.2,77.73,77.73,0,0,0,8.22-7.84c2-2.17,3.87-4.46,6-6.57a19.15,19.15,0,0,1,1.46-1.38c2-1.61,2.91-1.8,3.83-1.23a3.42,3.42,0,0,1,.61.41c.54.57,0,1.49-1.21,2.6-3.59,3.36-7.1,7.53-11,11.53-1.46,1.5-3,3-4.65,4.38a27.09,27.09,0,0,1-5.64,3.78Z"/><path class="cls-1" d="M302.39,287.88a30.79,30.79,0,0,0,4.46,2.47,9.16,9.16,0,0,0,1.12.43,7.24,7.24,0,0,0,1.09.31c.38.11.69.08,1,.15a3.83,3.83,0,0,0,.86-.06c.73-.16,1.15-.61,1.58-1.5.77-1.47.63-3.72.16-5.84a34.29,34.29,0,0,0-2.21-6.41,47.17,47.17,0,0,0-2.94-5.41c-1.4-2.23-3-4.35-4.23-6.71-.39-.74.19-1,1.11-.79a5.72,5.72,0,0,1,3.12,2.16,69.33,69.33,0,0,1,4.51,7,34.33,34.33,0,0,1,3.31,7.84,30.74,30.74,0,0,1,1,5.35,8.78,8.78,0,0,1-1.59,5.89,5.7,5.7,0,0,1-3.28,1.93,8.29,8.29,0,0,1-3.36-.16,20.94,20.94,0,0,1-5.47-2.28,57.33,57.33,0,0,1-5.81-3.85c-2.81-2.08-5.44-4.35-8.08-6.54-2.05-1.71-4.16-3.28-6.19-5-.45-.37-.91-.71-1.35-1.1-1.61-1.46-1.93-2.11-1.6-3.12a3.62,3.62,0,0,1,.23-.68c.36-.67,1.42-.49,2.7.43,3.81,2.75,7.48,5.95,11.26,9a89.65,89.65,0,0,0,8.63,6.38Z"/><path class="cls-1" d="M279.56,286.61a7.68,7.68,0,0,1-.62,2.93,5.22,5.22,0,0,1-1,1.44,3.58,3.58,0,0,1-.74.58l-.41.25-.43.19-.22.09a3.37,3.37,0,0,1-2.44,0,4.11,4.11,0,0,1-1.76-1.57,7.09,7.09,0,0,1-.71-1.61,14.43,14.43,0,0,1-.56-3l-.27-2.6a6,6,0,0,1,.34-3.45c.24-.43.8,0,1.37.38s1.17.84,1.19,1.35c.06,1.86.33,3.87.52,5.74a3.25,3.25,0,0,0,.52,1.4.76.76,0,0,0,.52.34.66.66,0,0,0,.28,0c.38,0,.88-.6,1-1.53a6.34,6.34,0,0,0-.09-2.28,8.33,8.33,0,0,0-1.39-3.36,2.63,2.63,0,0,0-1-.78.49.49,0,0,0-.22-.06.18.18,0,0,0-.16,0s0,0,0,0v0a.81.81,0,0,1,0-.09v-.14a.25.25,0,0,0,0-.08s0,.09,0,.1a.74.74,0,0,0,.21.3c-.09.09-.48.26-1.35,0-.21-.05-.42-.07-.61-.12a1.21,1.21,0,0,1-.77-.54,1.33,1.33,0,0,1-.07-1.16,2.44,2.44,0,0,1,.28-.56l.19-.29a4,4,0,0,1,.29-.29,2.69,2.69,0,0,1,1.68-.77,3.7,3.7,0,0,1,1.72.25,4.68,4.68,0,0,1,1.14.64,8.08,8.08,0,0,1,2.38,3.06,12.3,12.3,0,0,1,1.2,5.17Z"/><path class="cls-1" d="M281,305.67a5.25,5.25,0,0,1-1.48,2,5.8,5.8,0,0,1-2.39,1.16,4.59,4.59,0,0,1-1.94.23,3.64,3.64,0,0,1-2.57-1.75,7.93,7.93,0,0,1-1.07-3.14c-.07-.55-.14-1.09-.18-1.66a13.85,13.85,0,0,1,0-1.83c0-.41.07-.82.13-1.25a10,10,0,0,1,.21-1.19,4,4,0,0,1,.85-1.73c.32-.34.77.14,1.21.66s.92,1.09.86,1.58l0,.25h0a.34.34,0,0,0-.08.1,3.81,3.81,0,0,0-.33,1.33,1.35,1.35,0,0,0,.18,1c.16.19.37.2.61.31a1.4,1.4,0,0,0,1.64-.16,1.39,1.39,0,0,0,.28-1,3.6,3.6,0,0,0-.8-2,2.14,2.14,0,0,0-.75-.53,1.69,1.69,0,0,0-.49-.17c-.07,0-.1,0-.15,0s0,.11,0-.05a1.26,1.26,0,0,1,0-.26,1.31,1.31,0,0,0,0-.18h0a.36.36,0,0,0,.1.14c0,.05.06.05.12.1a1.08,1.08,0,0,0,.2.18s0,0-.06,0a.57.57,0,0,1-.24.07,2.62,2.62,0,0,1-.91.09c-.2,0-.4,0-.59,0a1,1,0,0,1-.8-.37,1.38,1.38,0,0,1-.23-.47,1.8,1.8,0,0,1,0-.73,3.37,3.37,0,0,1,.27-.69,3.22,3.22,0,0,1,.6-.73,3.3,3.3,0,0,1,1-.52,3.12,3.12,0,0,1,1-.1,4.79,4.79,0,0,1,2.53,1,9.56,9.56,0,0,1,1.92,2.13,12.06,12.06,0,0,1,1.23,2.39,7.85,7.85,0,0,1,.21,5.83Z"/><path class="cls-1" d="M347.8,351.4c-.17-3.3-.37-6.6-.72-9.82-.07-.81-.21-1.57-.31-2.36l-.22-1.08c0-.2,0-.13,0-.19s0-.06,0-.08l-.07-.06-.2-.09a9.27,9.27,0,0,0-.94-.35,20.42,20.42,0,0,0-2.21-.52,75.63,75.63,0,0,0-9.65-1c-3.28-.16-6.58-.21-9.89-.22-4.82,0-9.65.18-14.48.31-17,.5-34.09,1.49-51.13,2.66-7.56.54-15.15,1.21-22.64,1.92-9.63.82-19.26,2-28.94,2.27a10.07,10.07,0,0,1-1.67,0c-.34-.06-.59-.16-.54-.27a5.34,5.34,0,0,1,2-.93c1.24-.41,3-.91,5.16-1.43,1.07-.26,2.24-.53,3.49-.76s2.57-.4,4-.56l14.73-1.58c4.92-.49,9.85-.88,14.78-1.27q14.8-1.17,29.72-1.9c11.91-.53,24.28-1.4,36.5-1.66,6.71-.14,13.43-.17,20.19.18a65.3,65.3,0,0,1,10.2,1.2,14.84,14.84,0,0,1,2.64.83c.19.1.52.23.79.4l.82.54a.26.26,0,0,1,.13.19l.09.23.16.46a4.69,4.69,0,0,1,.28.86l.28,1.33.18,1.28c.13.86.19,1.7.29,2.55.4,4.15.6,8.27.78,12.4s.32,8.25.44,12.37c.36,12.49.51,25,.8,37.41.23,9.63.63,19.07,1,28.57.09,2.09.19,4.14.28,6.25.15,3.9.21,6.47.11,8.28a10.62,10.62,0,0,1-.65,3.72,10.93,10.93,0,0,1-.4,1.16c-.22.42-.58-.15-1-1.58a36.3,36.3,0,0,1-1-6.53c-1.21-17-1.49-35-1.93-53-.32-13.36-.54-26.81-1.25-40.13Z"/><path class="cls-1" d="M250.08,459.17c-6.57.08-13.15.05-19.73-.2a131.72,131.72,0,0,1-19.8-2,28.58,28.58,0,0,1-7.24-2.31c-.31-.19-.55-.28-1-.6s-.86-.61-1.23-.95c0-.52-.09-1-.11-1.56l-.06-.94-.2-3.58c-.78-16.86-1-33.7-1.35-50.53-.17-7.47-.34-15-.5-22.39q-.21-7.14-.4-14.29c-.06-2.39-.07-4.77-.09-7.15,0-1.19,0-2.38,0-3.57l0-3.56c0-2.91.2-2.61.9-.12.31,1.24.71,3,1.11,5.17a67.47,67.47,0,0,1,.82,7.42c.78,19.45,1,38.87,1.24,58.47.07,5.86.25,11.83.51,17.83.14,3,.29,6,.43,9l.26,4.5.13,2.25.06,1.12c0,.2,0,.29,0,.4l.16.13a2,2,0,0,0,.27.16,6.83,6.83,0,0,0,1,.51,11,11,0,0,0,1.05.43c.36.14.72.27,1.1.38a36.64,36.64,0,0,0,4.65,1.1,96.54,96.54,0,0,0,9.68,1.18c6.53.51,13.1.65,19.68.67,8.1,0,16.21-.19,24.3-.51,12.27-.49,24.6-1.19,36.76-2.1,9.45-.71,18.7-1.67,28-2.52l6.15-.56c7.7-.59,10.23-.5,11.92.41a4.68,4.68,0,0,1,1.07.6c.28.35-.24.5-1.6.8a59.75,59.75,0,0,1-6.33.85c-16.64,1.72-34.27,3.29-52,4.39-13.17.83-26.43,1.44-39.69,1.68Z"/><path class="cls-1" d="M201.77,451s-19,.15-20.45,2.4c-3.49,5.45,32.93,6.49,51.45,5C232.77,458.42,205.14,454.78,201.77,451Z"/><path class="cls-1" d="M280.85,363.92c-2,.15-3.92.24-5.88.2-.72,0-1.43.06-2.16,0s-1.29-.13-1.95-.23a9.73,9.73,0,0,1-2.15-.57,4,4,0,0,1-1.92-1.74,6.22,6.22,0,0,1-.72-2.11,22.08,22.08,0,0,1-.22-3.47,20.42,20.42,0,0,1,.32-4.07c.08-.39.66-.41,1.26-.06a2.52,2.52,0,0,1,1.24,1.92c0,1.43.05,2.76.11,4a11.3,11.3,0,0,0,.24,1.6,2.55,2.55,0,0,0,.48,1l.1.13.09.05s0,0,.1.06l.23.06a6.33,6.33,0,0,0,1.07.14c.79,0,1.62,0,2.45,0,1.82-.06,3.69-.11,5.55-.28,1.14-.1,2.28-.23,3.39-.42.52-.11,1.06-.2,1.56-.34a4.8,4.8,0,0,0,1.2-.41,1.87,1.87,0,0,0,.68-1,5.69,5.69,0,0,0-.72-3.24c-.11-.25-.25-.49-.36-.75a1.51,1.51,0,0,1-.13-1.16,1.66,1.66,0,0,1,.77-.83c.19-.12.36-.26.54-.35a1.62,1.62,0,0,1,2,.56,9.58,9.58,0,0,1,1.62,4,7,7,0,0,1-.15,2.81,5.54,5.54,0,0,1-1.88,2.85.54.54,0,0,1-.12.09c-.19.14-.4.25-.6.37a3.4,3.4,0,0,1-.56.27c-.3.11-.63.23-.9.3-.53.15-1.06.28-1.56.37-1,.2-2,.32-3,.45Z"/><path class="cls-1" d="M176.87,384c-1,.74-2.06,1.49-3.09,2.26-.37.28-.69.63-1.07.9-1.35,1-2.73,1.91-4.16,2.78-.62.41-1.22.85-1.81,1.29a7.53,7.53,0,0,1-2.43,1.47c-.29.08-.55-.42-.64-1a1.83,1.83,0,0,1,.38-1.64,37.74,37.74,0,0,1,4.48-3.21,18.25,18.25,0,0,0,2.69-2.15l3-2.41,1.88-1.48c.94-.76,1.93-1.46,2.85-2.24.71-.61,1.32-1.34,2-2a3.72,3.72,0,0,1,.46-.43c.63-.47.95-.42,1.54.21.13.14.27.28.39.43a1.29,1.29,0,0,1,.11,1.59,17.4,17.4,0,0,1-3.55,3.41l-3,2.29Z"/><path class="cls-1" d="M377.38,392c-1.05-1.23-2.15-2.44-3.32-3.57-.42-.43-.92-.74-1.35-1.16-1.5-1.47-3.08-2.87-4.71-4.24-.72-.61-1.53-1.1-2.29-1.63a21.36,21.36,0,0,1-3-2.07c-.28-.27,0-.69.55-1a2.5,2.5,0,0,1,2-.27,16.65,16.65,0,0,1,6.51,3.91c1.1,1.08,2.47,1.89,3.67,2.89s2.56,2.29,3.77,3.51c.75.74,1.47,1.51,2.18,2.29,1.09,1.16,2.09,2.41,3.19,3.55.85.89,1.8,1.67,2.67,2.55a4.35,4.35,0,0,1,.54.59,1.4,1.4,0,0,1-.1,2,5.15,5.15,0,0,1-.34.42,1.65,1.65,0,0,1-1.86.12,18.52,18.52,0,0,1-4.93-4.24c-1.09-1.19-2.17-2.4-3.31-3.56Z"/><path class="cls-1" d="M224.6,168.66A23.11,23.11,0,0,1,228,147.43a22.76,22.76,0,0,1,5.81-5.6,21.36,21.36,0,0,1,13.62-3.21,25.61,25.61,0,0,1,6.78,1.55,34.34,34.34,0,0,1,3.17,1.36,32.28,32.28,0,0,1,3,1.73,20.33,20.33,0,0,1,4.6,4.18,21.53,21.53,0,0,1,3.09,5.35,20.06,20.06,0,0,1-.07,15.35c-.65,1.49-1,1.08-1.13-.33,0-.36,0-.77-.08-1.24s-.09-1-.11-1.53-.07-1.14-.06-1.75-.06-1.25,0-1.91a18.85,18.85,0,0,0-4.72-12.61,19.42,19.42,0,0,0-2.49-2.31c-.45-.35-.94-.65-1.41-1l-1.56-.89a28,28,0,0,0-6.7-2.58,18,18,0,0,0-16.29,4.05,20.11,20.11,0,0,0-6.79,17.44,20.2,20.2,0,0,0,12.2,16.31,22.94,22.94,0,0,0,9,1.81,16.86,16.86,0,0,0,6.8-1.49,19.35,19.35,0,0,0,5.62-4,27.49,27.49,0,0,0,2-2.31c2.34-3,2.87-4.1,4-4.5a5.19,5.19,0,0,1,.7-.32c.64-.23.72,1.75-.83,4.5a21.93,21.93,0,0,1-10.65,9.68,20.7,20.7,0,0,1-7.51,1.51,27.27,27.27,0,0,1-7.48-1,23.8,23.8,0,0,1-9.85-5.55,23.48,23.48,0,0,1-6.13-9.49Z"/><path class="cls-1" d="M319.17,156.53a23.69,23.69,0,0,1,2.66,10.91,22.92,22.92,0,0,1-2.89,10.73,25.39,25.39,0,0,1-4.88,6.38A26.61,26.61,0,0,1,301.74,191,22,22,0,0,1,288,189.67a23.43,23.43,0,0,1-5.29-3.21,20.44,20.44,0,0,1-4.13-4.64,23.46,23.46,0,0,1-3.21-7.22,14.58,14.58,0,0,1,.18-7.94c.59-1.59,1-1.13,1.29.25.17.7.39,1.63.7,2.67s.55,2.2.87,3.46a19.7,19.7,0,0,0,6.94,11.66,19.49,19.49,0,0,0,13.25,4l1.08-.09c.36,0,.72-.12,1.08-.18a17.52,17.52,0,0,0,2.14-.51,21.19,21.19,0,0,0,4.09-1.78,24,24,0,0,0,6.83-5.76,21.27,21.27,0,0,0,2.68-4.1,19.37,19.37,0,0,0,1.35-14.22,24.22,24.22,0,0,0-1.08-2.83,10.47,10.47,0,0,0-.67-1.34,12.66,12.66,0,0,0-.79-1.26,16.41,16.41,0,0,0-4.26-4.17,21.47,21.47,0,0,0-8.51-3.45,19.71,19.71,0,0,0-9.13.46,19.42,19.42,0,0,0-6.28,3.15,22.5,22.5,0,0,0-4.73,5.06c-.27.43-.55.85-.82,1.27l-.72,1.36c-1.77,3.4-2.21,4.56-3.49,5a4.93,4.93,0,0,1-.83.33c-.42.08-.64-.32-.66-1.14a9.12,9.12,0,0,1,.74-3.5c.21-.55.41-1.1.65-1.65l.81-1.59.42-.81.49-.76c.34-.51.66-1,1-1.53a24.52,24.52,0,0,1,5.37-5.24A23.72,23.72,0,0,1,300,145.22a25.73,25.73,0,0,1,11,3.1,20.31,20.31,0,0,1,8.25,8.16Z"/><path class="cls-1" d="M257.09,189.12a40.81,40.81,0,0,1,3.11-9.06c.46-1,.82-2.07,1.28-3.09l2.5-5.35c.85-1.77,1.69-3.54,2.48-5.32.71-1.59,1.31-3.22,1.85-4.85a61.31,61.31,0,0,1,2.2-6.22c.28-.63.73-.43,1.09.27a5.15,5.15,0,0,1,.45,3.23,22.41,22.41,0,0,1-.92,3.35c-.36,1.09-.75,2.18-1.17,3.25-.84,2.14-1.77,4.24-2.81,6.29-1.25,2.45-2.25,5.12-3.34,7.67a62.12,62.12,0,0,0-3.25,8.43,12.13,12.13,0,0,0-.48,5.09,2.1,2.1,0,0,0,2.11,1.83,8,8,0,0,0,3.72-.9,18.88,18.88,0,0,0,5-3.69c.33-.31.62-.65.93-1a6.54,6.54,0,0,1,1.3-1.17,1.63,1.63,0,0,1,1.14-.12,3.88,3.88,0,0,1,.61.1c.63.16.69,1.2-.15,2.42a18.56,18.56,0,0,1-4.64,4.5,16.29,16.29,0,0,1-6.4,2.78,7,7,0,0,1-3.26-.16,5,5,0,0,1-2.92-2.5,7,7,0,0,1-.73-3.11,13.78,13.78,0,0,1,.2-2.7Z"/><path class="cls-1" d="M277.16,164.46c-2.34-2.68-6.38-3.78-9.53-1.8-1.77,1.12-.14,3.93,1.64,2.81,2-1.24,4.18-.33,5.6,1.29s3.67-.73,2.29-2.3Z"/><path class="cls-1" d="M285.85,142.79c5.66-4,14.87-4.49,21.27-2.12,2.27.83,3.24-2.79,1-3.62-7.24-2.67-17.75-2.07-24.16,2.5-1.94,1.39-.07,4.65,1.9,3.24Z"/><path class="cls-1" d="M248.21,162.42c4.27.44,9.12.58,13.07,2.42,1.89.87,3.54-1.93,1.64-2.81-4.52-2.1-9.82-2.35-14.71-2.86-2.08-.21-2.07,3,0,3.25Z"/><path class="cls-1" d="M255.29,162.29a1.74,1.74,0,0,0-1.49.91c-1.37,2.58-2,8.29,2.13,8.48S262.86,162,255.29,162.29Z"/><path class="cls-1" d="M285.93,167.35c3.38.38,7.19.66,10.32,2.13,1.89.88,3.54-1.92,1.64-2.81-3.7-1.73-7.94-2.12-12-2.57-2.08-.23-2.06,3,0,3.25Z"/><path class="cls-1" d="M289.26,166.93c-.62,0-.91-.19-1.2.36-1.36,2.58-2.26,8.83,1.84,9S296.83,166.68,289.26,166.93Z"/><path class="cls-1" d="M271.94,210.2a4,4,0,0,1,0,1.57,4.21,4.21,0,0,1-.19.67,3.54,3.54,0,0,1-.3.68,3,3,0,0,1-.8,1.08,3.69,3.69,0,0,1-.62.33,4.11,4.11,0,0,1-.68.14,2.61,2.61,0,0,1-1.16-.23,3,3,0,0,1-1.32-1.26,4.44,4.44,0,0,1-.52-1.41,1.69,1.69,0,0,1,.55-1.78c.17-.12.62.29,1.08.69a5.26,5.26,0,0,0,1,.76l0,0h0c.07,0,.08,0,.07,0a1.13,1.13,0,0,1-.08.32s-.1.31-.05.47c0,0,0,.12,0,0l-.06-.06a.64.64,0,0,0-.17-.16c-.09,0,.07-.07.11-.25a2.22,2.22,0,0,0,.13-.49,1,1,0,0,0,0-.36s-.05-.12-.13-.14a.21.21,0,0,0-.23,0s0,.07,0,.05a.38.38,0,0,0-.09-.09l0,0c-.09-.05,0,0,.2,0a2.23,2.23,0,0,0,.39-.1s0,.06-.18.18l-.66.58-.33.31a1.49,1.49,0,0,1-.6.35c-.24.07-.65.15-.83,0a1.37,1.37,0,0,1-.48-.43,1.7,1.7,0,0,1-.34-.7,2.31,2.31,0,0,1,.28-1.92,2.59,2.59,0,0,1,.64-.74,2.45,2.45,0,0,1,.74-.46,3.43,3.43,0,0,1,3.64.55,3.55,3.55,0,0,1,1.12,1.83Z"/><path class="cls-1" d="M240,367.67c-2.37,1.31-4.74,2.63-7.09,4l-2.55,1.52c-1.51.86-3.06,1.7-4.53,2.57s-3,1.81-4.44,2.74L217.49,381a24.5,24.5,0,0,1-5.36,2.7c-.6.19-.66-.21-.35-.78a5.64,5.64,0,0,1,1.94-1.88c3.37-2,6.68-4.22,10.22-6.28,2.13-1.23,4.26-2.59,6.39-3.87l7.07-4.15,4.38-2.52,6.66-3.76c1.71-1,3.33-2,5-3,.37-.22.73-.45,1.1-.66,1.41-.77,1.94-.86,2.5-.52a2,2,0,0,1,.38.24c.33.31-.08.93-1.05,1.59-2.89,1.94-6,3.8-9.19,5.62l-7.13,4Z"/><g class="cls-2"><path class="cls-1" d="M258.29,391.63c-3.52,1.79-7,3.63-10.47,5.56-1.26.7-2.48,1.47-3.74,2.18-4.42,2.51-8.81,5.08-13.1,7.81-1.92,1.19-3.78,2.49-5.63,3.76-2.36,1.65-4.69,3.36-7.13,4.89-.76.47-.87.11-.47-.63a10.3,10.3,0,0,1,2.65-2.87,174,174,0,0,1,14.8-9.81c3.06-1.81,6.16-3.84,9.29-5.7q5.17-3,10.46-5.91c2.16-1.17,4.34-2.32,6.52-3.46,3.31-1.73,6.68-3.37,10-5.05,2.58-1.28,5-2.69,7.58-4,.56-.28,1.1-.58,1.68-.84,2.12-1,2.88-1.13,3.6-.73a2.52,2.52,0,0,1,.49.28c.41.37-.29,1.15-1.78,2-4.4,2.54-9.21,4.81-14,7.17-3.57,1.75-7.15,3.51-10.68,5.37Z"/></g><g class="cls-2"><path class="cls-1" d="M291.4,408.33c-4.12,2.26-8.23,4.53-12.31,6.85l-4.44,2.59-7.91,4.45c-2.67,1.46-5.35,2.86-8,4.29-2.36,1.26-4.71,2.58-7,3.95-2.91,1.76-5.73,3.66-8.56,5.53-.88.58-1,.19-.54-.68a11.19,11.19,0,0,1,3.2-3.38c2.89-2,5.89-3.9,8.93-5.66s6.15-3.37,9.24-5c3.69-2,7.35-4.41,11.06-6.6,4.08-2.41,8.21-4.75,12.33-7.09l7.62-4.29c3.84-2.18,7.73-4.31,11.53-6.49,3-1.69,5.79-3.48,8.68-5.2.64-.38,1.25-.77,1.9-1.14,2.41-1.37,3.28-1.64,4.13-1.31a2.8,2.8,0,0,1,.58.22c.49.35-.29,1.28-2,2.41-5,3.33-10.46,6.6-16,9.69l-12.41,6.92Z"/></g><path class="cls-1" d="M294.38,430.18l-6.11,2.76c-.74.34-1.45.75-2.19,1.09-2.61,1.19-5.22,2.38-7.8,3.63-1.15.55-2.26,1.18-3.35,1.81a37.49,37.49,0,0,1-4.25,2.37c-.93.41-.74-1.74.84-2.8a64.67,64.67,0,0,1,8.83-4.76c1.86-.79,3.66-1.84,5.51-2.75l6.1-2.91,3.75-1.79c1.89-.91,3.8-1.8,5.63-2.78,1.41-.78,2.74-1.66,4.12-2.45.31-.16.61-.34.93-.5,1.18-.57,1.62-.63,2.09-.38a1.81,1.81,0,0,1,.31.18c.28.22-.05.75-.8,1.39a34.62,34.62,0,0,1-7.51,4.91q-3,1.59-6.07,3Z"/><path class="cls-1" d="M197.86,413.24l.09-15.42c0-1.87-.09-3.74-.08-5.62,0-6.6.15-13.2.11-19.79,0-2.93-.14-5.87-.27-8.77-.11-1.85-.21-3.72-.31-5.58a33,33,0,0,1,.22-5.61c.21-1.18.42-1,1-.1.32.47.7,1.15,1.14,2a10.09,10.09,0,0,1,.85,2.89c.19,1.91.3,3.82.41,5.73s.2,3.83.21,5.74c.05,3.83,0,7.66-.12,11.52-.16,4.6.09,9.38.13,14.09l.06,15.51c0,3.19,0,6.37.08,9.55.07,4.82.11,9.66.33,14.43.19,3.71.6,7.34.95,11,.09.81.17,1.59.25,2.4.24,3,.08,4-.91,4.69a4.11,4.11,0,0,1-.61.48c-.63.33-1.5-.85-1.82-3.06a156.41,156.41,0,0,1-1.6-20.47c-.15-5.18-.17-10.38-.22-15.57Z"/><path class="cls-1" d="M284.41,355.87c-.25-.13,0-.45.62-1a2.39,2.39,0,0,1,1-.48,4.06,4.06,0,0,1,.77.33,1.45,1.45,0,0,1,.27.39l.22.39c.07.17.13.36.19.56a2.34,2.34,0,0,1,.14.68,3,3,0,0,1,0,.73,4.06,4.06,0,0,1-.31,1.23,4.37,4.37,0,0,1-2.1,2.16,11.81,11.81,0,0,1-4.2,1,2.49,2.49,0,0,1-.86-.07,10.21,10.21,0,0,0-2.83-.29.65.65,0,0,0-.48.09,7.4,7.4,0,0,1-3.11-.31c-.75-.43-1.51-.79-2.25-1.26-.1-.06-.25-.05-.29-.26-.11-.47-.37-.49-.61-.62a3.32,3.32,0,0,1-.95-.73,1.63,1.63,0,0,1-.24-.76c0-.25.47-.66.54-.69.24-.08.33-.38.49-.59l.18-.22a8.73,8.73,0,0,1,1.93-.42l.38.08c.22,0,.53.09.85.14a11.38,11.38,0,0,0,1.46.12c.15,0,.28.12.41.2s2.05,0,2.12,0c.4.09.81,0,1.19.35.07.08.15.06.23.06a19,19,0,0,1,2,.16,5,5,0,0,0,1-.11c.05,0,.11,0,.17,0a.4.4,0,0,0,.21,0l.88-.21c.24-.07.36-.16.33-.19s0,0,.08,0h.1c.1,0,.21-.11.17-.17s.12-.1.21-.22S284.46,355.9,284.41,355.87Z"/><path class="cls-1" d="M107,434.54c-2.21-.09-4.42-.17-6.63-.22-.81,0-1.61.09-2.42.06-2.85-.08-5.7-.22-8.55-.28-1.27,0-2.54,0-3.79.12a17.2,17.2,0,0,1-4.86,0c-1-.22.27-3.33,2.07-3.45a66.75,66.75,0,0,1,9.8,0,51.27,51.27,0,0,0,6-.21c2.22-.07,4.45-.1,6.68-.13l4.12-.05c2.08,0,4.17,0,6.24-.11,1.61-.1,3.18-.36,4.79-.5.35,0,.69-.1,1.05-.1,1.33,0,1.74.3,2,1.37a6.36,6.36,0,0,1,.16.73,1.68,1.68,0,0,1-1.39,1.76,32.13,32.13,0,0,1-8.66,1.16c-2.2.06-4.42,0-6.64,0Z"/><path class="cls-1" d="M435.83,431.09c1.9.13,3.8.25,5.72.35.69,0,1.39,0,2.09,0,2.47.15,4.95.52,7.42.81,1.09.12,2.2.2,3.3.27a12,12,0,0,1,4.21.75c.42.18.2.85-.29,1.47a2.63,2.63,0,0,1-2,1.14c-2.68-.17-5.41-.23-8.21-.63a44.46,44.46,0,0,0-5.17-.05l-5.74-.11-3.56-.08c-1.8,0-3.61-.14-5.4-.11-1.4,0-2.79.24-4.22.29a5.9,5.9,0,0,1-.94,0,1.86,1.86,0,0,1-1.19-.49,2.38,2.38,0,0,1-.37-1.17c0-.21-.06-.41-.06-.6a1.33,1.33,0,0,1,.38-.9,1.83,1.83,0,0,1,1-.72l.89-.22a5,5,0,0,1,.91-.17c.6-.07,1.2-.1,1.81-.14,1.22-.06,2.47-.06,3.72,0l5.68.21Z"/><path class="cls-1" d="M254.08,285.5c-1.2,1.19-2.43,2.36-3.73,3.49-.48.41-.92.85-1.43,1.23a16,16,0,0,1-6.06,3,14.23,14.23,0,0,1-3,.29,7.77,7.77,0,0,1-3.71-.94c-.35-.19-.15-.51.28-.75a2.8,2.8,0,0,1,1.69-.32,12.22,12.22,0,0,0,6.48-.84,13.92,13.92,0,0,0,3.59-2.42c1.26-1,2.46-2.19,3.63-3.37q1.09-1.1,2.16-2.22l3.26-3.41c.83-.9,1.58-1.85,2.42-2.74.18-.2.36-.4.56-.59.73-.69,1.1-.77,1.62-.45a3.37,3.37,0,0,1,.35.22c.34.29.26.83-.19,1.37-1.34,1.62-2.85,3.19-4.37,4.83-1.16,1.21-2.32,2.44-3.47,3.66Z"/><path class="cls-1" d="M297.56,287.73a60.8,60.8,0,0,0,5.42,3.81c.68.42,1.4.76,2.09,1.13a16.07,16.07,0,0,0,3.79,1.52,4.44,4.44,0,0,0,3.57-.41,4.34,4.34,0,0,0,1.58-2.89,17.87,17.87,0,0,0-.22-4.65c-.07-.5.31-.54.79-.2a3.22,3.22,0,0,1,1.2,2.09,8.56,8.56,0,0,1-.86,5.59,4.84,4.84,0,0,1-2.37,2.15,5.72,5.72,0,0,1-3,.35,20,20,0,0,1-6.22-2.09,43.62,43.62,0,0,1-5.83-3.76c-1.14-.84-2.25-1.72-3.35-2.6-1.66-1.33-3.27-2.74-4.89-4.09-1.27-1.05-2.57-2-3.84-3-.28-.23-.56-.43-.84-.67-1-.87-1.22-1.27-1-1.89a2.46,2.46,0,0,1,.13-.41c.21-.41.85-.31,1.65.25,2.38,1.66,4.68,3.62,7,5.54,1.73,1.43,3.47,2.87,5.27,4.2Z"/><path class="cls-1" d="M380.52,327.91a47.19,47.19,0,0,0-3.77,7.61,16.22,16.22,0,0,0-.91,3.75,4.29,4.29,0,0,0,.52,2.81,3.88,3.88,0,0,0,2.05,1.76,4,4,0,0,0,2.61-.94,5.63,5.63,0,0,0,1.93-2.53,7.67,7.67,0,0,0,.47-3.51,6.19,6.19,0,0,0-2.22-4.41,8.68,8.68,0,0,0-5-1.68,26.14,26.14,0,0,0-10.51,2.09,42.78,42.78,0,0,0-5.05,2.34,39.29,39.29,0,0,0-4.69,3,105.12,105.12,0,0,0-16.88,15.21,44.4,44.4,0,0,0-5.76,8.15,22.9,22.9,0,0,0-1.84,4.5,12.17,12.17,0,0,0-.4,4.62,9,9,0,0,0,2.47,5.14,8,8,0,0,0,5.06,2.5,21.92,21.92,0,0,0,6.18-.24c2.11-.29,4.24-.74,6.42-1.05,1.37-.2,2-.1,2,.09s-.65.5-1.71,1-2.57,1.11-4.47,1.78a21.46,21.46,0,0,1-7,1.39,12.11,12.11,0,0,1-7.36-2.2,10.65,10.65,0,0,1-1.48-1.34,9.67,9.67,0,0,1-1.24-1.52l-.55-.82c-.15-.29-.29-.6-.44-.9a8.87,8.87,0,0,1-.68-1.89,14.1,14.1,0,0,1,.33-7.62,27.77,27.77,0,0,1,3-6.51,61.23,61.23,0,0,1,8.64-10.7,111.5,111.5,0,0,1,10.19-9c2.15-1.66,4.29-3.31,6.65-4.89a47.88,47.88,0,0,1,7.51-3.93,34.32,34.32,0,0,1,8.28-2.39,14.91,14.91,0,0,1,9,1.16A10.72,10.72,0,0,1,384,330.3a9.17,9.17,0,0,1,1.67,2.18,10.75,10.75,0,0,1,1.33,5.07,10.87,10.87,0,0,1-1.09,5.13,8.62,8.62,0,0,1-.7,1.17,6.42,6.42,0,0,1-.88,1.07,8.33,8.33,0,0,1-1.05.92,11.46,11.46,0,0,1-1.1.71,7.81,7.81,0,0,1-2.65,1,5.42,5.42,0,0,1-3.12-.44,7.49,7.49,0,0,1-2.26-1.75,10.74,10.74,0,0,1-.81-1,6.58,6.58,0,0,1-.73-1.29,9.65,9.65,0,0,1-.41-5.29,22.77,22.77,0,0,1,1.34-4.63,63.59,63.59,0,0,1,5.33-10c2-3.15,4.06-6.3,6.3-9.28A122.18,122.18,0,0,1,409,289.75a74.63,74.63,0,0,1,11.12-6.95,58.07,58.07,0,0,1,12.29-4.67,28.55,28.55,0,0,1,5.91-.85,12.52,12.52,0,0,1,8.05,2.19,4.68,4.68,0,0,1,2,3.27,4.51,4.51,0,0,1,0,1.25c-.18.5-.77.19-1.69-.47a11.83,11.83,0,0,0-4.44-2c-3.18-.68-6.84-.07-10.38.93a63.6,63.6,0,0,0-10.52,4.24,81,81,0,0,0-18.79,13.67,125.77,125.77,0,0,0-11.93,13,128.16,128.16,0,0,0-10,14.61Z"/><path class="cls-1" d="M176.84,311.41a43.91,43.91,0,0,1,.12,6.5,15.94,15.94,0,0,1-1.7,6.79,5.93,5.93,0,0,1-3.27,2.79l-.56.17-.64.07a4.56,4.56,0,0,1-.64,0c-.21,0-.43-.07-.64-.12a4.77,4.77,0,0,1-2.1-1.12,9.11,9.11,0,0,1-2.13-3.15,16.69,16.69,0,0,1-1-3.29,16.92,16.92,0,0,1-.32-2.55l0-.74.1-.63.2-1.25a6.15,6.15,0,0,1,.33-1.24l.41-1.22c.19-.39.4-.78.61-1.16a5.12,5.12,0,0,1,.7-1.1,11,11,0,0,1,7.82-4.44,12.31,12.31,0,0,1,8.48,2.35,16.59,16.59,0,0,1,1.65,1.48l.72.83.36.42.29.46a22.44,22.44,0,0,1,1.95,3.76,45.1,45.1,0,0,1,2.21,7.88,70.08,70.08,0,0,1,1,14.29,66.69,66.69,0,0,1-.95,9.11,35.47,35.47,0,0,1-2.81,8.75c-.86,1.73-1.16,1.25-1-.39s.58-4.47,1.17-7.77a65.63,65.63,0,0,0,.76-17.87,57.39,57.39,0,0,0-1.54-8.78l-.63-2.12-.77-2.06-.91-2c-.35-.6-.69-1.17-1.09-1.73a9.46,9.46,0,0,0-8.57-3.71,8.18,8.18,0,0,0-6.93,6c-.06.22-.16.42-.2.65l-.12.69-.12.69L167,317v.29a11.18,11.18,0,0,0,.38,2.71,12.45,12.45,0,0,0,.95,2.63,4.54,4.54,0,0,0,1.47,1.83,1.33,1.33,0,0,0,.75.2h.2a1.19,1.19,0,0,0,.23-.07,2,2,0,0,0,.45-.19,3.62,3.62,0,0,0,1.43-1.77,15.68,15.68,0,0,0,1-5.64,46,46,0,0,0-.43-7.48,56.66,56.66,0,0,0-1.46-7.38,21.32,21.32,0,0,0-5.47-9.47,10.28,10.28,0,0,0-4.63-2.49,11.41,11.41,0,0,0-5.29.09,20.29,20.29,0,0,0-7.51,3.83,38.45,38.45,0,0,0-6.12,6c-.8,1-1.52,2-2.26,3-1.37,1.92-2.16,3.25-2.85,4.11a4.53,4.53,0,0,1-1.8,1.59,4.3,4.3,0,0,1-.85.37c-.79.18-.57-2,1.2-5.25a39.66,39.66,0,0,1,11.06-12.79,24,24,0,0,1,8.19-4,14,14,0,0,1,9.7.85,15.78,15.78,0,0,1,5.52,4.65,25.57,25.57,0,0,1,3.32,5.95A32.71,32.71,0,0,1,176,305c.41,2.12.73,4.25.93,6.41Z"/><path class="cls-1" d="M49.47,342.12a67.12,67.12,0,0,1,11,13.91c1.34,2.2,4.81.19,3.46-2A71.68,71.68,0,0,0,52.3,339.29c-1.88-1.75-4.72,1.07-2.83,2.83Z"/><path class="cls-1" d="M59.1,347.47c1.7-1.14,3-2.84,4.77-3.85,2.24-1.27.23-4.72-2-3.45-1.81,1-3.06,2.71-4.77,3.85a2.06,2.06,0,0,0-.72,2.74,2,2,0,0,0,2.74.71Z"/><path class="cls-1" d="M56.41,335.57c3.75,4.93,8,9.51,11.58,14.54,1.49,2.07,5,.08,3.45-2-3.62-5-7.82-9.61-11.58-14.54-1.53-2-5,0-3.45,2Z"/><path class="cls-1" d="M67.85,331.79c1.94,3.47,4.25,6.7,5.85,10.36,1,2.35,4.48.32,3.46-2-1.6-3.66-3.91-6.89-5.86-10.36-1.26-2.25-4.71-.23-3.45,2Z"/><path class="cls-1" d="M64.28,332.54c3.08-1.8,6.71-2.42,9.87-4.05,2.29-1.19.27-4.64-2-3.46-3.16,1.64-6.78,2.25-9.87,4.06-2.22,1.3-.21,4.76,2,3.45Z"/><path class="cls-1" d="M85.8,333.43c-2.68-4.38-4.09-9.24-5.18-14.23l-1.93,2.53c2.5-.13,5.21,2.76,7.11,4.15,1.38,1,2.83-.41,3-1.73.44-3.26.52-6.6,1.87-9.65L87,314c2.09,5,4.09,10,6,15.06.89,2.4,4.76,1.36,3.86-1.06q-2.82-7.59-6-15.06c-.57-1.36-2.87-2.25-3.65-.48-1.67,3.77-1.88,7.64-2.42,11.67l3-1.73c-2.64-1.92-5.62-4.87-9.13-4.69a2,2,0,0,0-1.93,2.54,48.36,48.36,0,0,0,5.59,15.18c1.34,2.19,4.8.18,3.45-2Z"/><path class="cls-1" d="M96,308.43c1.4,3.75-.17,9.49,3.2,12.39,1.8,1.56,4.08,1,5.93-.15a61.24,61.24,0,0,1,7.53-4.48c2.35-1.05.32-4.5-2-3.46a33,33,0,0,0-6,3.32c-1.11.82-2.73,2.64-3.37.64-1-3-.35-6.34-1.46-9.32C99,305,95.13,306,96,308.43Z"/><g class="cls-2"><path class="cls-1" d="M117.48,229.8c-.65-1.06-1.26-2.14-1.83-3.27a13.48,13.48,0,0,1-.64-1.26,4.35,4.35,0,0,1-.34-1.44,3.43,3.43,0,0,1,.26-1.53,5.59,5.59,0,0,1,1.72-2.1c.59-.46,1.18-.88,1.76-1.28a10.4,10.4,0,0,1,2.28-1.34c.25-.09.46.26.49.73a1.55,1.55,0,0,1-.56,1.35,17.41,17.41,0,0,0-3.78,2.94,1.36,1.36,0,0,0-.28,1,1.65,1.65,0,0,0,.14.55c.09.23.19.45.3.69a35.71,35.71,0,0,0,1.7,3.14c.38.63.77,1.27,1.19,1.88.32.46.64.93,1,1.37.17.22.34.45.52.65l.25.29.19.18a.53.53,0,0,0,.31.15.67.67,0,0,0,.3-.19c.09-.1.5-.45.78-.73l.42-.39c.54-.46.87-.52,1.3-.14a1.38,1.38,0,0,1,.27.27.87.87,0,0,1-.09,1.11,10.8,10.8,0,0,1-.81.88c-.16.15-.31.29-.48.43l-.14.11-.23.16c-.17.1-.33.22-.5.3a2.17,2.17,0,0,1-1.07.26,10.12,10.12,0,0,1-1-.44l-.42-.39c-.12-.12-.31-.29-.36-.35l-.44-.51a33.55,33.55,0,0,1-2.2-3.09Z"/></g><g class="cls-2"><path class="cls-1" d="M129.24,215.88,131,219c.22.38.49.72.7,1.1.39.67.74,1.36,1.11,2l.54,1,.83,1.43c.07.14.2.28.18.4a20.06,20.06,0,0,0-2,1.35c-.65.54-1.27,1.15-1.9,1.59-.18.12-.52-.1-.68-.55a1.51,1.51,0,0,1,.28-1.49,16.15,16.15,0,0,1,1.26-1.11l.33-.25c.07-.05,0,0,.05,0h.08s0,0,0-.08,0,0,0-.08l-.13-.24-.25-.49c-.49-1-1.21-1.83-1.78-2.76l-1.88-3.1-1.17-1.9-.44-.72-.22-.36-.14-.23a2.8,2.8,0,0,0-.25-.41c-.12-.06-.3.06-.45.09s-.62.27-1,.46-.72.41-1.06.62l-.42.29c-.52.33-.7.2-1.23-.21l-.33-.22a.72.72,0,0,1-.28-.58,1.07,1.07,0,0,1,.32-.82,8,8,0,0,1,2.23-1.44l.59-.25.15,0,.26-.08c.18-.05.35-.1.55-.14l1.12-.26.28-.06c.09,0,.13.12.2.17l.36.43a11.43,11.43,0,0,1,1,1.41l.48.78.94,1.55Z"/></g><g class="cls-2"><path class="cls-1" d="M446.81,353.68a19.19,19.19,0,0,1,.34-2.09c.1-.45.26-.88.38-1.31l.2-.63c0-.1,0-.24.12-.29l.33.05c.32.06.63.09.94.12a6.59,6.59,0,0,1,1,.22l.44.12.36.11.49.17,1,.34,2,.66a14,14,0,0,0,1.78.43,7.23,7.23,0,0,1,2.24.67c.22.13.09.56-.21,1a1.62,1.62,0,0,1-1.22.78c-.4,0-.8-.07-1.19-.13s-.77-.16-1.16-.26a12.65,12.65,0,0,1-2.27-.77,8.29,8.29,0,0,0-1.39-.43l-.36-.07-.28-.07-.24-.11-.29-.11c-.07,0-.07,0-.09.06l-.06.13a1.46,1.46,0,0,0-.11.3l-.05.19c0,.08,0,.24,0,.35a14.63,14.63,0,0,0-.13,1.89,20.87,20.87,0,0,0,.13,2.95,23.14,23.14,0,0,0,.54,2.26,4.23,4.23,0,0,1,.13.51c.1.64-.07.87-.74,1a3.84,3.84,0,0,1-.46.11,1,1,0,0,1-1.15-.57,13.73,13.73,0,0,1-.94-4.17,25.7,25.7,0,0,1-.05-3.41Z"/></g><g class="cls-2"><path class="cls-1" d="M471.39,365.64l.1.77,0,.19.05.33.13.69.12.68c0,.22,0,.41,0,.61l0,.6,0,.29v.07l-.08,0-.16,0a14.47,14.47,0,0,1-1.83.37,8,8,0,0,1-.85,0,5.41,5.41,0,0,1-.77,0c-.35,0-.7-.09-1-.15-.69-.12-1.36-.26-2-.41s-1.19-.22-1.79-.32a4.43,4.43,0,0,1-2.27-.76c-.22-.18.08-.67.47-1.12s.85-.88,1.22-.8l2.05.4c.69.17,1.39.36,2.1.58a4.13,4.13,0,0,0,1.3.18h.54a1.09,1.09,0,0,0,.31,0c.05,0,0-.14,0-.23s0-.19,0-.29l-.1-.51-.33-1.87c-.18-.94-.33-1.9-.58-2.82a18.17,18.17,0,0,0-.82-2.07,2.45,2.45,0,0,1-.17-.45.74.74,0,0,1,.07-.68,1.42,1.42,0,0,1,.59-.42c.12,0,.24-.12.35-.16a1.24,1.24,0,0,1,1.25.37,10.78,10.78,0,0,1,1.57,3.83c.23,1,.38,2,.57,3.06Z"/></g><g class="cls-2"><path class="cls-1" d="M462.52,358l-3.77,3.25c-.45.41-.88.85-1.35,1.25a51.8,51.8,0,0,1-5.29,3.85c-.82.51-1.62,1.07-2.44,1.58-.53.31-1,.67-1.59,1a6.72,6.72,0,0,1-1.76.63c-.38.09-.52-.38-.44-1a2.22,2.22,0,0,1,.94-1.66c2.06-1.12,4-2.37,6.09-3.67a25.43,25.43,0,0,0,3.4-2.88L460,357l2.32-2.07c1.19-1,2.45-2,3.68-3,.49-.37.94-.79,1.4-1.19l1.42-1.17a7.89,7.89,0,0,1,.65-.49c.86-.54,1.23-.54,1.75,0a4,4,0,0,1,.35.37,1.13,1.13,0,0,1-.31,1.54c-1.56,1.38-3.27,2.61-5,4q-1.89,1.49-3.75,3.14Z"/></g><path class="cls-1" d="M418.31,248.59c2.25,3.33,2.93,7.35,4.63,11,.75,1.59,3.13.2,2.37-1.39-1.71-3.62-2.36-7.59-4.63-10.95-1-1.46-3.37-.08-2.37,1.39Z"/><path class="cls-1" d="M417.1,257.29c2.59-2.35,6-4.35,9.55-4.65,1.75-.15,1.77-2.9,0-2.75a20.16,20.16,0,0,0-11.5,5.45c-1.31,1.19.64,3.13,2,2Z"/><path class="cls-1" d="M96.48,377.19c-2.27,3.35-2.93,7.33-4.63,10.94-.76,1.59,1.61,3,2.37,1.39,1.7-3.6,2.38-7.61,4.63-10.95,1-1.46-1.39-2.84-2.37-1.38Z"/><path class="cls-1" d="M102,385.33a20.12,20.12,0,0,0-11.5-5.46c-1.77-.15-1.76,2.6,0,2.75,3.54.31,7,2.31,9.55,4.65,1.31,1.19,3.26-.75,2-1.94Z"/><path class="cls-1" d="M103.55,432.35c1.39.07,2.8.11,4.21.09.51,0,1-.14,1.53-.14,1.81,0,3.64-.06,5.44-.25a12.19,12.19,0,0,0,2.34-.51,9.21,9.21,0,0,1,2.76-.8c.28,0,.7.79.8,1.7s-.23,2-.86,2.16a17.84,17.84,0,0,1-6.71.84,36.06,36.06,0,0,0-4,.3c-1.47.08-3,.08-4.42.06-.91,0-1.82-.06-2.73-.08-1.37-.05-2.75-.19-4.13-.25-1.07-.06-2.14.08-3.27,0a6,6,0,0,1-.74,0c-.94-.22-1.17-.54-1-1.47a5.89,5.89,0,0,1,.11-.63,1.56,1.56,0,0,1,1.27-1.22,37.15,37.15,0,0,1,5.27,0l2.07.09,2.09,0Z"/><path class="cls-1" d="M439.35,436.69c-1.27.07-2.59.19-3.93.33-.48.05-1,.2-1.46.23a35.61,35.61,0,0,1-5.37,0c-.8,0-1.62-.1-2.44-.09-.53-.06-1.07-.08-1.6-.16a3.88,3.88,0,0,1-1.49-.68c-.28-.21.12-1,.66-1.71s1.17-1.4,1.58-1.28c1.54.32,3.22.46,5.13.75a13.15,13.15,0,0,0,3.5-.31l4-.45c.84-.09,1.68-.16,2.53-.22,1.28-.11,2.6-.06,3.91-.08.51,0,1,0,1.55,0a10.77,10.77,0,0,1,1.6.07,2.37,2.37,0,0,1,.7.1c.86.26,1.06.58.85,1.49-.05.2-.09.41-.16.61a1.56,1.56,0,0,1-1.27,1.15c-1.58.18-2.95.07-4.57.12-1.18,0-2.42.08-3.7.24Z"/></g></svg>