<?xml version="1.0" standalone="no"?>
<!DOCTYPE svg PUBLIC "-//W3C//DTD SVG 20010904//EN"
 "http://www.w3.org/TR/2001/REC-SVG-20010904/DTD/svg10.dtd">
<svg version="1.0" xmlns="http://www.w3.org/2000/svg"
 width="700.000000pt" height="700.000000pt" viewBox="0 0 700.000000 700.000000"
 preserveAspectRatio="xMidYMid meet">
<metadata>
Created by potrace 1.14, written by Peter Selinger 2001-2017
</metadata>
<g transform="translate(0.000000,700.000000) scale(0.100000,-0.100000)"
fill="#000000" stroke="none">
<path d="M3415 6981 c-22 -11 -49 -28 -61 -38 -18 -16 -323 -462 -333 -488 -2
-5 -7 -12 -10 -15 -19 -16 -1020 -1531 -1029 -1559 -47 -134 49 -274 196 -286
21 -2 40 -4 44 -4 3 -1 -97 -166 -224 -368 -127 -203 -239 -382 -249 -400 -10
-17 -39 -64 -65 -105 -26 -40 -57 -89 -69 -108 -121 -195 -256 -413 -275 -444
-32 -53 -33 -144 -3 -201 41 -77 100 -113 199 -120 36 -2 68 -6 70 -8 2 -2
-161 -333 -362 -736 -339 -677 -366 -735 -366 -784 -1 -65 19 -114 66 -160 66
-66 25 -64 1124 -63 655 1 992 -2 993 -9 0 -5 1 -251 2 -545 l2 -535 436 -3
436 -2 1 522 c0 288 1 534 1 548 l1 25 992 -1 c546 0 1007 3 1025 7 93 20 168
116 166 214 -1 48 -31 112 -364 781 -200 401 -364 733 -364 738 0 5 30 10 66
12 99 4 161 41 202 119 30 59 29 137 -4 200 -24 46 -668 1080 -834 1340 -60
93 -59 90 -6 91 142 2 246 150 199 285 -9 26 -1268 1928 -1351 2040 -49 67
-176 97 -252 60z"/>
</g>
</svg>
